<svg xmlns="http://www.w3.org/2000/svg" viewBox="0 0 320 180" role="img"><title>별책부록 인근 건물 모형</title><rect width="320" height="180" rx="18" fill="#eef3f7"/><polygon points="155.3,120.7 122.6,141.0 122.6,73.7 155.3,53.4" fill="#9cafbd" stroke="#6e879a" stroke-width=".7"/><polygon points="122.6,141.0 116.9,138.9 116.9,71.5 122.6,73.7" fill="#9cafbd" stroke="#6e879a" stroke-width=".7"/><polygon points="116.9,138.9 86.6,155.0 86.6,87.6 116.9,71.5" fill="#9cafbd" stroke="#6e879a" stroke-width=".7"/><polygon points="86.6,155.0 30.0,133.4 30.0,66.0 86.6,87.6" fill="#9cafbd" stroke="#6e879a" stroke-width=".7"/><polygon points="30.0,133.4 91.4,97.4 91.4,30.0 30.0,66.0" fill="#9cafbd" stroke="#6e879a" stroke-width=".7"/><polygon points="91.4,97.4 155.3,120.7 155.3,53.4 91.4,30.0" fill="#9cafbd" stroke="#6e879a" stroke-width=".7"/><polygon points="155.3,53.4 122.6,73.7 116.9,71.5 86.6,87.6 30.0,66.0 91.4,30.0 155.3,53.4" fill="#d8e4ed" stroke="#6e879a"/></svg>